<?xml version="1.0" encoding="UTF-8" standalone="no"?>
<!DOCTYPE svg PUBLIC "-//W3C//DTD SVG 1.1//EN"
 "http://www.w3.org/Graphics/SVG/1.1/DTD/svg11.dtd">
<!-- Generated by graphviz version 2.40.1 (20161225.0304)
 -->
<!-- Title: %0 Pages: 1 -->
<svg width="1113pt" height="332pt"
 viewBox="0.00 0.00 1113.17 332.00" xmlns="http://www.w3.org/2000/svg" xmlns:xlink="http://www.w3.org/1999/xlink">
<g id="graph0" class="graph" transform="scale(1 1) rotate(0) translate(4 328)">
<title>%0</title>
<polygon fill="#ffffff" stroke="transparent" points="-4,4 -4,-328 1109.169,-328 1109.169,4 -4,4"/>
<!-- /home/sirhaan/projects/pipelinedCpu/rtl/cache/dcache/dcache.sv -->
<g id="node1" class="node">
<title>/home/sirhaan/projects/pipelinedCpu/rtl/cache/dcache/dcache.sv</title>
<polygon fill="#d3d3d3" stroke="#069302" points="139.3625,-180 60.3205,-180 60.3205,-176 56.3205,-176 56.3205,-172 60.3205,-172 60.3205,-152 56.3205,-152 56.3205,-148 60.3205,-148 60.3205,-144 139.3625,-144 139.3625,-180"/>
<polyline fill="none" stroke="#069302" points="60.3205,-176 64.3205,-176 64.3205,-172 60.3205,-172 "/>
<polyline fill="none" stroke="#069302" points="60.3205,-152 64.3205,-152 64.3205,-148 60.3205,-148 "/>
<text text-anchor="middle" x="99.8415" y="-157.8" font-family="Helvetica,sans-Serif" font-size="14.00" fill="#000000">dcache.sv</text>
</g>
<!-- /home/sirhaan/projects/pipelinedCpu/rtl/cache/dcache/dcacheController.sv -->
<g id="node2" class="node">
<title>/home/sirhaan/projects/pipelinedCpu/rtl/cache/dcache/dcacheController.sv</title>
<polygon fill="#d3d3d3" stroke="#069302" points="139.5249,-108 .1581,-108 .1581,-104 -3.8419,-104 -3.8419,-100 .1581,-100 .1581,-80 -3.8419,-80 -3.8419,-76 .1581,-76 .1581,-72 139.5249,-72 139.5249,-108"/>
<polyline fill="none" stroke="#069302" points=".1581,-104 4.1581,-104 4.1581,-100 .1581,-100 "/>
<polyline fill="none" stroke="#069302" points=".1581,-80 4.1581,-80 4.1581,-76 .1581,-76 "/>
<text text-anchor="middle" x="69.8415" y="-85.8" font-family="Helvetica,sans-Serif" font-size="14.00" fill="#000000">dcacheController.sv</text>
</g>
<!-- /home/sirhaan/projects/pipelinedCpu/rtl/cache/dcache/dcache.sv&#45;&gt;/home/sirhaan/projects/pipelinedCpu/rtl/cache/dcache/dcacheController.sv -->
<g id="edge1" class="edge">
<title>/home/sirhaan/projects/pipelinedCpu/rtl/cache/dcache/dcache.sv&#45;&gt;/home/sirhaan/projects/pipelinedCpu/rtl/cache/dcache/dcacheController.sv</title>
<path fill="none" stroke="#000000" d="M92.2712,-143.8314C88.9922,-135.9617 85.0795,-126.5712 81.447,-117.8533"/>
<polygon fill="#000000" stroke="#000000" points="84.5907,-116.2979 77.5137,-108.4133 78.1291,-118.9902 84.5907,-116.2979"/>
</g>
<!-- /home/sirhaan/projects/pipelinedCpu/rtl/cache/replacement/TPLRU.sv -->
<g id="node6" class="node">
<title>/home/sirhaan/projects/pipelinedCpu/rtl/cache/replacement/TPLRU.sv</title>
<polygon fill="#d3d3d3" stroke="#069302" points="186.6174,-36 107.0656,-36 107.0656,-32 103.0656,-32 103.0656,-28 107.0656,-28 107.0656,-8 103.0656,-8 103.0656,-4 107.0656,-4 107.0656,0 186.6174,0 186.6174,-36"/>
<polyline fill="none" stroke="#069302" points="107.0656,-32 111.0656,-32 111.0656,-28 107.0656,-28 "/>
<polyline fill="none" stroke="#069302" points="107.0656,-8 111.0656,-8 111.0656,-4 107.0656,-4 "/>
<text text-anchor="middle" x="146.8415" y="-13.8" font-family="Helvetica,sans-Serif" font-size="14.00" fill="#000000">TPLRU.sv</text>
</g>
<!-- /home/sirhaan/projects/pipelinedCpu/rtl/cache/dcache/dcacheController.sv&#45;&gt;/home/sirhaan/projects/pipelinedCpu/rtl/cache/replacement/TPLRU.sv -->
<g id="edge2" class="edge">
<title>/home/sirhaan/projects/pipelinedCpu/rtl/cache/dcache/dcacheController.sv&#45;&gt;/home/sirhaan/projects/pipelinedCpu/rtl/cache/replacement/TPLRU.sv</title>
<path fill="none" stroke="#000000" d="M89.2719,-71.8314C98.5735,-63.1337 109.8619,-52.5783 119.9701,-43.1265"/>
<polygon fill="#000000" stroke="#000000" points="122.5036,-45.5493 127.4174,-36.1628 117.7226,-40.4363 122.5036,-45.5493"/>
</g>
<!-- /home/sirhaan/projects/pipelinedCpu/rtl/cache/icache/icache.sv -->
<g id="node3" class="node">
<title>/home/sirhaan/projects/pipelinedCpu/rtl/cache/icache/icache.sv</title>
<polygon fill="#d3d3d3" stroke="#069302" points="247.1873,-180 172.4957,-180 172.4957,-176 168.4957,-176 168.4957,-172 172.4957,-172 172.4957,-152 168.4957,-152 168.4957,-148 172.4957,-148 172.4957,-144 247.1873,-144 247.1873,-180"/>
<polyline fill="none" stroke="#069302" points="172.4957,-176 176.4957,-176 176.4957,-172 172.4957,-172 "/>
<polyline fill="none" stroke="#069302" points="172.4957,-152 176.4957,-152 176.4957,-148 172.4957,-148 "/>
<text text-anchor="middle" x="209.8415" y="-157.8" font-family="Helvetica,sans-Serif" font-size="14.00" fill="#000000">icache.sv</text>
</g>
<!-- /home/sirhaan/projects/pipelinedCpu/rtl/cache/icache/icacheController.sv -->
<g id="node4" class="node">
<title>/home/sirhaan/projects/pipelinedCpu/rtl/cache/icache/icacheController.sv</title>
<polygon fill="#d3d3d3" stroke="#069302" points="292.3485,-108 157.3345,-108 157.3345,-104 153.3345,-104 153.3345,-100 157.3345,-100 157.3345,-80 153.3345,-80 153.3345,-76 157.3345,-76 157.3345,-72 292.3485,-72 292.3485,-108"/>
<polyline fill="none" stroke="#069302" points="157.3345,-104 161.3345,-104 161.3345,-100 157.3345,-100 "/>
<polyline fill="none" stroke="#069302" points="157.3345,-80 161.3345,-80 161.3345,-76 157.3345,-76 "/>
<text text-anchor="middle" x="224.8415" y="-85.8" font-family="Helvetica,sans-Serif" font-size="14.00" fill="#000000">icacheController.sv</text>
</g>
<!-- /home/sirhaan/projects/pipelinedCpu/rtl/cache/icache/icache.sv&#45;&gt;/home/sirhaan/projects/pipelinedCpu/rtl/cache/icache/icacheController.sv -->
<g id="edge3" class="edge">
<title>/home/sirhaan/projects/pipelinedCpu/rtl/cache/icache/icache.sv&#45;&gt;/home/sirhaan/projects/pipelinedCpu/rtl/cache/icache/icacheController.sv</title>
<path fill="none" stroke="#000000" d="M213.6266,-143.8314C215.2309,-136.131 217.1385,-126.9743 218.9214,-118.4166"/>
<polygon fill="#000000" stroke="#000000" points="222.3922,-118.9169 221.0054,-108.4133 215.5394,-117.4892 222.3922,-118.9169"/>
</g>
<!-- /home/sirhaan/projects/pipelinedCpu/rtl/cache/icache/icacheController.sv&#45;&gt;/home/sirhaan/projects/pipelinedCpu/rtl/cache/replacement/TPLRU.sv -->
<g id="edge4" class="edge">
<title>/home/sirhaan/projects/pipelinedCpu/rtl/cache/icache/icacheController.sv&#45;&gt;/home/sirhaan/projects/pipelinedCpu/rtl/cache/replacement/TPLRU.sv</title>
<path fill="none" stroke="#000000" d="M205.1588,-71.8314C195.7364,-63.1337 184.3014,-52.5783 174.0619,-43.1265"/>
<polygon fill="#000000" stroke="#000000" points="176.2399,-40.3738 166.5179,-36.1628 171.492,-45.5175 176.2399,-40.3738"/>
</g>
<!-- /home/sirhaan/projects/pipelinedCpu/rtl/cache/replacement/BPLRU.sv -->
<g id="node5" class="node">
<title>/home/sirhaan/projects/pipelinedCpu/rtl/cache/replacement/BPLRU.sv</title>
<polygon fill="#d3d3d3" stroke="#069302" points="912.9023,-324 832.7807,-324 832.7807,-320 828.7807,-320 828.7807,-316 832.7807,-316 832.7807,-296 828.7807,-296 828.7807,-292 832.7807,-292 832.7807,-288 912.9023,-288 912.9023,-324"/>
<polyline fill="none" stroke="#069302" points="832.7807,-320 836.7807,-320 836.7807,-316 832.7807,-316 "/>
<polyline fill="none" stroke="#069302" points="832.7807,-296 836.7807,-296 836.7807,-292 832.7807,-292 "/>
<text text-anchor="middle" x="872.8415" y="-301.8" font-family="Helvetica,sans-Serif" font-size="14.00" fill="#000000">BPLRU.sv</text>
</g>
<!-- /home/sirhaan/projects/pipelinedCpu/rtl/core/ALU.sv -->
<g id="node7" class="node">
<title>/home/sirhaan/projects/pipelinedCpu/rtl/core/ALU.sv</title>
<polygon fill="#d3d3d3" stroke="#069302" points="326.458,-180 265.225,-180 265.225,-176 261.225,-176 261.225,-172 265.225,-172 265.225,-152 261.225,-152 261.225,-148 265.225,-148 265.225,-144 326.458,-144 326.458,-180"/>
<polyline fill="none" stroke="#069302" points="265.225,-176 269.225,-176 269.225,-172 265.225,-172 "/>
<polyline fill="none" stroke="#069302" points="265.225,-152 269.225,-152 269.225,-148 265.225,-148 "/>
<text text-anchor="middle" x="295.8415" y="-157.8" font-family="Helvetica,sans-Serif" font-size="14.00" fill="#000000">ALU.sv</text>
</g>
<!-- /home/sirhaan/projects/pipelinedCpu/rtl/core/ControlUnit.sv -->
<g id="node8" class="node">
<title>/home/sirhaan/projects/pipelinedCpu/rtl/core/ControlUnit.sv</title>
<polygon fill="#d3d3d3" stroke="#069302" points="448.7308,-180 344.9522,-180 344.9522,-176 340.9522,-176 340.9522,-172 344.9522,-172 344.9522,-152 340.9522,-152 340.9522,-148 344.9522,-148 344.9522,-144 448.7308,-144 448.7308,-180"/>
<polyline fill="none" stroke="#069302" points="344.9522,-176 348.9522,-176 348.9522,-172 344.9522,-172 "/>
<polyline fill="none" stroke="#069302" points="344.9522,-152 348.9522,-152 348.9522,-148 344.9522,-148 "/>
<text text-anchor="middle" x="396.8415" y="-157.8" font-family="Helvetica,sans-Serif" font-size="14.00" fill="#000000">ControlUnit.sv</text>
</g>
<!-- /home/sirhaan/projects/pipelinedCpu/rtl/core/Decoder.sv -->
<g id="node9" class="node">
<title>/home/sirhaan/projects/pipelinedCpu/rtl/core/Decoder.sv</title>
<polygon fill="#d3d3d3" stroke="#069302" points="553.13,-180 466.553,-180 466.553,-176 462.553,-176 462.553,-172 466.553,-172 466.553,-152 462.553,-152 462.553,-148 466.553,-148 466.553,-144 553.13,-144 553.13,-180"/>
<polyline fill="none" stroke="#069302" points="466.553,-176 470.553,-176 470.553,-172 466.553,-172 "/>
<polyline fill="none" stroke="#069302" points="466.553,-152 470.553,-152 470.553,-148 466.553,-148 "/>
<text text-anchor="middle" x="509.8415" y="-157.8" font-family="Helvetica,sans-Serif" font-size="14.00" fill="#000000">Decoder.sv</text>
</g>
<!-- /home/sirhaan/projects/pipelinedCpu/rtl/core/FU.sv -->
<g id="node10" class="node">
<title>/home/sirhaan/projects/pipelinedCpu/rtl/core/FU.sv</title>
<polygon fill="#d3d3d3" stroke="#069302" points="624.8415,-180 570.8415,-180 570.8415,-176 566.8415,-176 566.8415,-172 570.8415,-172 570.8415,-152 566.8415,-152 566.8415,-148 570.8415,-148 570.8415,-144 624.8415,-144 624.8415,-180"/>
<polyline fill="none" stroke="#069302" points="570.8415,-176 574.8415,-176 574.8415,-172 570.8415,-172 "/>
<polyline fill="none" stroke="#069302" points="570.8415,-152 574.8415,-152 574.8415,-148 570.8415,-148 "/>
<text text-anchor="middle" x="597.8415" y="-157.8" font-family="Helvetica,sans-Serif" font-size="14.00" fill="#000000">FU.sv</text>
</g>
<!-- /home/sirhaan/projects/pipelinedCpu/rtl/core/HDU.sv -->
<g id="node11" class="node">
<title>/home/sirhaan/projects/pipelinedCpu/rtl/core/HDU.sv</title>
<polygon fill="#d3d3d3" stroke="#069302" points="707.0522,-180 642.6308,-180 642.6308,-176 638.6308,-176 638.6308,-172 642.6308,-172 642.6308,-152 638.6308,-152 638.6308,-148 642.6308,-148 642.6308,-144 707.0522,-144 707.0522,-180"/>
<polyline fill="none" stroke="#069302" points="642.6308,-176 646.6308,-176 646.6308,-172 642.6308,-172 "/>
<polyline fill="none" stroke="#069302" points="642.6308,-152 646.6308,-152 646.6308,-148 642.6308,-148 "/>
<text text-anchor="middle" x="674.8415" y="-157.8" font-family="Helvetica,sans-Serif" font-size="14.00" fill="#000000">HDU.sv</text>
</g>
<!-- /home/sirhaan/projects/pipelinedCpu/rtl/core/PC.sv -->
<g id="node12" class="node">
<title>/home/sirhaan/projects/pipelinedCpu/rtl/core/PC.sv</title>
<polygon fill="#d3d3d3" stroke="#069302" points="778.8415,-180 724.8415,-180 724.8415,-176 720.8415,-176 720.8415,-172 724.8415,-172 724.8415,-152 720.8415,-152 720.8415,-148 724.8415,-148 724.8415,-144 778.8415,-144 778.8415,-180"/>
<polyline fill="none" stroke="#069302" points="724.8415,-176 728.8415,-176 728.8415,-172 724.8415,-172 "/>
<polyline fill="none" stroke="#069302" points="724.8415,-152 728.8415,-152 728.8415,-148 724.8415,-148 "/>
<text text-anchor="middle" x="751.8415" y="-157.8" font-family="Helvetica,sans-Serif" font-size="14.00" fill="#000000">PC.sv</text>
</g>
<!-- /home/sirhaan/projects/pipelinedCpu/rtl/core/RF.sv -->
<g id="node13" class="node">
<title>/home/sirhaan/projects/pipelinedCpu/rtl/core/RF.sv</title>
<polygon fill="#d3d3d3" stroke="#069302" points="850.8415,-180 796.8415,-180 796.8415,-176 792.8415,-176 792.8415,-172 796.8415,-172 796.8415,-152 792.8415,-152 792.8415,-148 796.8415,-148 796.8415,-144 850.8415,-144 850.8415,-180"/>
<polyline fill="none" stroke="#069302" points="796.8415,-176 800.8415,-176 800.8415,-172 796.8415,-172 "/>
<polyline fill="none" stroke="#069302" points="796.8415,-152 800.8415,-152 800.8415,-148 796.8415,-148 "/>
<text text-anchor="middle" x="823.8415" y="-157.8" font-family="Helvetica,sans-Serif" font-size="14.00" fill="#000000">RF.sv</text>
</g>
<!-- /home/sirhaan/projects/pipelinedCpu/rtl/core/pipelinedCpu.sv -->
<g id="node14" class="node">
<title>/home/sirhaan/projects/pipelinedCpu/rtl/core/pipelinedCpu.sv</title>
<polygon fill="#d3d3d3" stroke="#069302" points="655.4201,-252 540.2629,-252 540.2629,-248 536.2629,-248 536.2629,-244 540.2629,-244 540.2629,-224 536.2629,-224 536.2629,-220 540.2629,-220 540.2629,-216 655.4201,-216 655.4201,-252"/>
<polyline fill="none" stroke="#069302" points="540.2629,-248 544.2629,-248 544.2629,-244 540.2629,-244 "/>
<polyline fill="none" stroke="#069302" points="540.2629,-224 544.2629,-224 544.2629,-220 540.2629,-220 "/>
<text text-anchor="middle" x="597.8415" y="-229.8" font-family="Helvetica,sans-Serif" font-size="14.00" fill="#000000">pipelinedCpu.sv</text>
</g>
<!-- /home/sirhaan/projects/pipelinedCpu/rtl/core/pipelinedCpu.sv&#45;&gt;/home/sirhaan/projects/pipelinedCpu/rtl/cache/dcache/dcache.sv -->
<g id="edge14" class="edge">
<title>/home/sirhaan/projects/pipelinedCpu/rtl/core/pipelinedCpu.sv&#45;&gt;/home/sirhaan/projects/pipelinedCpu/rtl/cache/dcache/dcache.sv</title>
<path fill="none" stroke="#000000" d="M540.1797,-229.6036C456.6176,-222.6059 297.2574,-206.9028 163.8415,-180 159.1389,-179.0517 154.2764,-177.9369 149.4297,-176.7347"/>
<polygon fill="#000000" stroke="#000000" points="150.1189,-173.2976 139.56,-174.1693 148.3579,-180.0724 150.1189,-173.2976"/>
</g>
<!-- /home/sirhaan/projects/pipelinedCpu/rtl/core/pipelinedCpu.sv&#45;&gt;/home/sirhaan/projects/pipelinedCpu/rtl/cache/icache/icache.sv -->
<g id="edge9" class="edge">
<title>/home/sirhaan/projects/pipelinedCpu/rtl/core/pipelinedCpu.sv&#45;&gt;/home/sirhaan/projects/pipelinedCpu/rtl/cache/icache/icache.sv</title>
<path fill="none" stroke="#000000" d="M540.1629,-228.7407C473.6058,-221.8201 360.9655,-207.4885 256.754,-179.9448"/>
<polygon fill="#000000" stroke="#000000" points="257.5863,-176.5443 247.0203,-177.3264 255.7678,-183.304 257.5863,-176.5443"/>
</g>
<!-- /home/sirhaan/projects/pipelinedCpu/rtl/core/pipelinedCpu.sv&#45;&gt;/home/sirhaan/projects/pipelinedCpu/rtl/core/ALU.sv -->
<g id="edge15" class="edge">
<title>/home/sirhaan/projects/pipelinedCpu/rtl/core/pipelinedCpu.sv&#45;&gt;/home/sirhaan/projects/pipelinedCpu/rtl/core/ALU.sv</title>
<path fill="none" stroke="#000000" d="M540.1759,-225.8504C488.6589,-217.7335 411.2205,-203.4719 336.1965,-179.7381"/>
<polygon fill="#000000" stroke="#000000" points="337.1773,-176.3769 326.5857,-176.6406 335.0299,-183.0395 337.1773,-176.3769"/>
</g>
<!-- /home/sirhaan/projects/pipelinedCpu/rtl/core/pipelinedCpu.sv&#45;&gt;/home/sirhaan/projects/pipelinedCpu/rtl/core/ControlUnit.sv -->
<g id="edge5" class="edge">
<title>/home/sirhaan/projects/pipelinedCpu/rtl/core/pipelinedCpu.sv&#45;&gt;/home/sirhaan/projects/pipelinedCpu/rtl/core/ControlUnit.sv</title>
<path fill="none" stroke="#000000" d="M547.3802,-215.9243C519.9023,-206.0815 485.7243,-193.8386 456.8827,-183.5073"/>
<polygon fill="#000000" stroke="#000000" points="457.9182,-180.1605 447.3236,-180.0831 455.5575,-186.7505 457.9182,-180.1605"/>
</g>
<!-- /home/sirhaan/projects/pipelinedCpu/rtl/core/pipelinedCpu.sv&#45;&gt;/home/sirhaan/projects/pipelinedCpu/rtl/core/Decoder.sv -->
<g id="edge8" class="edge">
<title>/home/sirhaan/projects/pipelinedCpu/rtl/core/pipelinedCpu.sv&#45;&gt;/home/sirhaan/projects/pipelinedCpu/rtl/core/Decoder.sv</title>
<path fill="none" stroke="#000000" d="M575.6354,-215.8314C564.7965,-206.9632 551.5971,-196.1637 539.8737,-186.5718"/>
<polygon fill="#000000" stroke="#000000" points="541.9965,-183.7864 532.0405,-180.1628 537.5638,-189.2041 541.9965,-183.7864"/>
</g>
<!-- /home/sirhaan/projects/pipelinedCpu/rtl/core/pipelinedCpu.sv&#45;&gt;/home/sirhaan/projects/pipelinedCpu/rtl/core/FU.sv -->
<g id="edge10" class="edge">
<title>/home/sirhaan/projects/pipelinedCpu/rtl/core/pipelinedCpu.sv&#45;&gt;/home/sirhaan/projects/pipelinedCpu/rtl/core/FU.sv</title>
<path fill="none" stroke="#000000" d="M597.8415,-215.8314C597.8415,-208.131 597.8415,-198.9743 597.8415,-190.4166"/>
<polygon fill="#000000" stroke="#000000" points="601.3416,-190.4132 597.8415,-180.4133 594.3416,-190.4133 601.3416,-190.4132"/>
</g>
<!-- /home/sirhaan/projects/pipelinedCpu/rtl/core/pipelinedCpu.sv&#45;&gt;/home/sirhaan/projects/pipelinedCpu/rtl/core/HDU.sv -->
<g id="edge7" class="edge">
<title>/home/sirhaan/projects/pipelinedCpu/rtl/core/pipelinedCpu.sv&#45;&gt;/home/sirhaan/projects/pipelinedCpu/rtl/core/HDU.sv</title>
<path fill="none" stroke="#000000" d="M617.2719,-215.8314C626.5735,-207.1337 637.8619,-196.5783 647.9701,-187.1265"/>
<polygon fill="#000000" stroke="#000000" points="650.5036,-189.5493 655.4174,-180.1628 645.7226,-184.4363 650.5036,-189.5493"/>
</g>
<!-- /home/sirhaan/projects/pipelinedCpu/rtl/core/pipelinedCpu.sv&#45;&gt;/home/sirhaan/projects/pipelinedCpu/rtl/core/PC.sv -->
<g id="edge13" class="edge">
<title>/home/sirhaan/projects/pipelinedCpu/rtl/core/pipelinedCpu.sv&#45;&gt;/home/sirhaan/projects/pipelinedCpu/rtl/core/PC.sv</title>
<path fill="none" stroke="#000000" d="M638.144,-215.9711C658.9656,-206.5626 684.9537,-194.6752 715.5643,-180.069"/>
<polygon fill="#000000" stroke="#000000" points="717.2562,-183.1395 724.7639,-175.6638 714.2329,-176.826 717.2562,-183.1395"/>
</g>
<!-- /home/sirhaan/projects/pipelinedCpu/rtl/core/pipelinedCpu.sv&#45;&gt;/home/sirhaan/projects/pipelinedCpu/rtl/core/RF.sv -->
<g id="edge12" class="edge">
<title>/home/sirhaan/projects/pipelinedCpu/rtl/core/pipelinedCpu.sv&#45;&gt;/home/sirhaan/projects/pipelinedCpu/rtl/core/RF.sv</title>
<path fill="none" stroke="#000000" d="M655.4792,-218.2041C700.4756,-205.788 758.9308,-189.4479 786.8686,-179.8526"/>
<polygon fill="#000000" stroke="#000000" points="788.379,-183.0267 796.5632,-176.2985 785.9695,-176.4544 788.379,-183.0267"/>
</g>
<!-- /home/sirhaan/projects/pipelinedCpu/rtl/memory/MemoryArbitrator.sv -->
<g id="node16" class="node">
<title>/home/sirhaan/projects/pipelinedCpu/rtl/memory/MemoryArbitrator.sv</title>
<polygon fill="#d3d3d3" stroke="#069302" points="1010.8331,-180 868.8499,-180 868.8499,-176 864.8499,-176 864.8499,-172 868.8499,-172 868.8499,-152 864.8499,-152 864.8499,-148 868.8499,-148 868.8499,-144 1010.8331,-144 1010.8331,-180"/>
<polyline fill="none" stroke="#069302" points="868.8499,-176 872.8499,-176 872.8499,-172 868.8499,-172 "/>
<polyline fill="none" stroke="#069302" points="868.8499,-152 872.8499,-152 872.8499,-148 868.8499,-148 "/>
<text text-anchor="middle" x="939.8415" y="-157.8" font-family="Helvetica,sans-Serif" font-size="14.00" fill="#000000">MemoryArbitrator.sv</text>
</g>
<!-- /home/sirhaan/projects/pipelinedCpu/rtl/core/pipelinedCpu.sv&#45;&gt;/home/sirhaan/projects/pipelinedCpu/rtl/memory/MemoryArbitrator.sv -->
<g id="edge6" class="edge">
<title>/home/sirhaan/projects/pipelinedCpu/rtl/core/pipelinedCpu.sv&#45;&gt;/home/sirhaan/projects/pipelinedCpu/rtl/memory/MemoryArbitrator.sv</title>
<path fill="none" stroke="#000000" d="M655.5123,-218.1928C658.6621,-217.4274 661.7872,-216.6911 664.8415,-216 747.6941,-197.2541 771.778,-197.6218 858.7229,-180.1793"/>
<polygon fill="#000000" stroke="#000000" points="859.6678,-183.559 868.7723,-178.1407 858.276,-176.6988 859.6678,-183.559"/>
</g>
<!-- /home/sirhaan/projects/pipelinedCpu/rtl/memory/UMEM.sv -->
<g id="node17" class="node">
<title>/home/sirhaan/projects/pipelinedCpu/rtl/memory/UMEM.sv</title>
<polygon fill="#d3d3d3" stroke="#069302" points="1104.9973,-180 1028.6857,-180 1028.6857,-176 1024.6857,-176 1024.6857,-172 1028.6857,-172 1028.6857,-152 1024.6857,-152 1024.6857,-148 1028.6857,-148 1028.6857,-144 1104.9973,-144 1104.9973,-180"/>
<polyline fill="none" stroke="#069302" points="1028.6857,-176 1032.6857,-176 1032.6857,-172 1028.6857,-172 "/>
<polyline fill="none" stroke="#069302" points="1028.6857,-152 1032.6857,-152 1032.6857,-148 1028.6857,-148 "/>
<text text-anchor="middle" x="1066.8415" y="-157.8" font-family="Helvetica,sans-Serif" font-size="14.00" fill="#000000">UMEM.sv</text>
</g>
<!-- /home/sirhaan/projects/pipelinedCpu/rtl/core/pipelinedCpu.sv&#45;&gt;/home/sirhaan/projects/pipelinedCpu/rtl/memory/UMEM.sv -->
<g id="edge11" class="edge">
<title>/home/sirhaan/projects/pipelinedCpu/rtl/core/pipelinedCpu.sv&#45;&gt;/home/sirhaan/projects/pipelinedCpu/rtl/memory/UMEM.sv</title>
<path fill="none" stroke="#000000" d="M655.4502,-217.8901C658.6161,-217.2028 661.7615,-216.5661 664.8415,-216 817.6173,-187.9214 863.6729,-215.5006 1018.7434,-179.9018"/>
<polygon fill="#000000" stroke="#000000" points="1019.6932,-183.2741 1028.6289,-177.5816 1018.0937,-176.4593 1019.6932,-183.2741"/>
</g>
<!-- /home/sirhaan/projects/pipelinedCpu/rtl/include/config.svh -->
<g id="node15" class="node">
<title>/home/sirhaan/projects/pipelinedCpu/rtl/include/config.svh</title>
<polygon fill="#d3d3d3" stroke="#069302" points="1010.3597,-324 931.3233,-324 931.3233,-320 927.3233,-320 927.3233,-316 931.3233,-316 931.3233,-296 927.3233,-296 927.3233,-292 931.3233,-292 931.3233,-288 1010.3597,-288 1010.3597,-324"/>
<polyline fill="none" stroke="#069302" points="931.3233,-320 935.3233,-320 935.3233,-316 931.3233,-316 "/>
<polyline fill="none" stroke="#069302" points="931.3233,-296 935.3233,-296 935.3233,-292 931.3233,-292 "/>
<text text-anchor="middle" x="970.8415" y="-301.8" font-family="Helvetica,sans-Serif" font-size="14.00" fill="#000000">config.svh</text>
</g>
<!-- /home/sirhaan/projects/pipelinedCpu/tb/functionalTB.sv -->
<g id="node18" class="node">
<title>/home/sirhaan/projects/pipelinedCpu/tb/functionalTB.sv</title>
<polygon fill="#d3d3d3" stroke="#069302" points="662.5291,-324 551.1539,-324 551.1539,-320 547.1539,-320 547.1539,-316 551.1539,-316 551.1539,-296 547.1539,-296 547.1539,-292 551.1539,-292 551.1539,-288 662.5291,-288 662.5291,-324"/>
<polyline fill="none" stroke="#069302" points="551.1539,-320 555.1539,-320 555.1539,-316 551.1539,-316 "/>
<polyline fill="none" stroke="#069302" points="551.1539,-296 555.1539,-296 555.1539,-292 551.1539,-292 "/>
<text text-anchor="middle" x="606.8415" y="-301.8" font-family="Helvetica,sans-Serif" font-size="14.00" fill="#000000">functionalTB.sv</text>
</g>
<!-- /home/sirhaan/projects/pipelinedCpu/tb/functionalTB.sv&#45;&gt;/home/sirhaan/projects/pipelinedCpu/rtl/core/pipelinedCpu.sv -->
<g id="edge17" class="edge">
<title>/home/sirhaan/projects/pipelinedCpu/tb/functionalTB.sv&#45;&gt;/home/sirhaan/projects/pipelinedCpu/rtl/core/pipelinedCpu.sv</title>
<path fill="none" stroke="#000000" d="M604.5704,-287.8314C603.6079,-280.131 602.4633,-270.9743 601.3936,-262.4166"/>
<polygon fill="#000000" stroke="#000000" points="604.8566,-261.9019 600.1432,-252.4133 597.9106,-262.7702 604.8566,-261.9019"/>
</g>
<!-- /home/sirhaan/projects/pipelinedCpu/tb/performanceCounter.sv -->
<g id="node19" class="node">
<title>/home/sirhaan/projects/pipelinedCpu/tb/performanceCounter.sv</title>
<polygon fill="#d3d3d3" stroke="#069302" points="836.0885,-252 673.5945,-252 673.5945,-248 669.5945,-248 669.5945,-244 673.5945,-244 673.5945,-224 669.5945,-224 669.5945,-220 673.5945,-220 673.5945,-216 836.0885,-216 836.0885,-252"/>
<polyline fill="none" stroke="#069302" points="673.5945,-248 677.5945,-248 677.5945,-244 673.5945,-244 "/>
<polyline fill="none" stroke="#069302" points="673.5945,-224 677.5945,-224 677.5945,-220 673.5945,-220 "/>
<text text-anchor="middle" x="754.8415" y="-229.8" font-family="Helvetica,sans-Serif" font-size="14.00" fill="#000000">performanceCounter.sv</text>
</g>
<!-- /home/sirhaan/projects/pipelinedCpu/tb/functionalTB.sv&#45;&gt;/home/sirhaan/projects/pipelinedCpu/tb/performanceCounter.sv -->
<g id="edge16" class="edge">
<title>/home/sirhaan/projects/pipelinedCpu/tb/functionalTB.sv&#45;&gt;/home/sirhaan/projects/pipelinedCpu/tb/performanceCounter.sv</title>
<path fill="none" stroke="#000000" d="M644.1881,-287.8314C663.7184,-278.3302 687.8056,-266.6121 708.5146,-256.5374"/>
<polygon fill="#000000" stroke="#000000" points="710.3022,-259.56 717.7634,-252.038 707.2399,-253.2654 710.3022,-259.56"/>
</g>
<!-- /home/sirhaan/projects/pipelinedCpu/tb/performanceTB.sv -->
<g id="node20" class="node">
<title>/home/sirhaan/projects/pipelinedCpu/tb/performanceTB.sv</title>
<polygon fill="#d3d3d3" stroke="#069302" points="815.1898,-324 684.4932,-324 684.4932,-320 680.4932,-320 680.4932,-316 684.4932,-316 684.4932,-296 680.4932,-296 680.4932,-292 684.4932,-292 684.4932,-288 815.1898,-288 815.1898,-324"/>
<polyline fill="none" stroke="#069302" points="684.4932,-320 688.4932,-320 688.4932,-316 684.4932,-316 "/>
<polyline fill="none" stroke="#069302" points="684.4932,-296 688.4932,-296 688.4932,-292 684.4932,-292 "/>
<text text-anchor="middle" x="749.8415" y="-301.8" font-family="Helvetica,sans-Serif" font-size="14.00" fill="#000000">performanceTB.sv</text>
</g>
<!-- /home/sirhaan/projects/pipelinedCpu/tb/performanceTB.sv&#45;&gt;/home/sirhaan/projects/pipelinedCpu/rtl/core/pipelinedCpu.sv -->
<g id="edge19" class="edge">
<title>/home/sirhaan/projects/pipelinedCpu/tb/performanceTB.sv&#45;&gt;/home/sirhaan/projects/pipelinedCpu/rtl/core/pipelinedCpu.sv</title>
<path fill="none" stroke="#000000" d="M711.4855,-287.8314C691.3371,-278.2874 666.4663,-266.5065 645.1332,-256.4013"/>
<polygon fill="#000000" stroke="#000000" points="646.4574,-253.1558 635.9217,-252.038 643.4608,-259.482 646.4574,-253.1558"/>
</g>
<!-- /home/sirhaan/projects/pipelinedCpu/tb/performanceTB.sv&#45;&gt;/home/sirhaan/projects/pipelinedCpu/tb/performanceCounter.sv -->
<g id="edge18" class="edge">
<title>/home/sirhaan/projects/pipelinedCpu/tb/performanceTB.sv&#45;&gt;/home/sirhaan/projects/pipelinedCpu/tb/performanceCounter.sv</title>
<path fill="none" stroke="#000000" d="M751.1032,-287.8314C751.638,-280.131 752.2738,-270.9743 752.8681,-262.4166"/>
<polygon fill="#000000" stroke="#000000" points="756.3615,-262.6317 753.5628,-252.4133 749.3783,-262.1467 756.3615,-262.6317"/>
</g>
</g>
</svg>
